<svg width="1280" height="720" xmlns="http://www.w3.org/2000/svg" xmlns:xlink="http://www.w3.org/1999/xlink" overflow="hidden"><defs><clipPath id="clip0"><rect x="0" y="0" width="1280" height="720"/></clipPath></defs><g clip-path="url(#clip0)"><rect x="0" y="0" width="1280" height="720" fill="#202020" fill-opacity="0"/><rect x="331.5" y="7.50005" width="586" height="697" stroke="#000000" stroke-width="1.33333" stroke-miterlimit="8" fill="#292929"/><path d="M727 181.5C726.626 177.126 730.031 174.116 734.454 174 755.679 169.288 773.56 178.017 784.422 174 795.284 169.983 813.053 178.646 830.546 174 834.416 173.864 838.836 177.76 838 181.5 839.727 189.608 836.817 196.826 838 211.5 838.429 214.939 834.135 219.466 830.546 219 819.225 222.16 798.529 213.591 782.5 219 766.471 224.409 744.759 217.673 734.454 219 729.218 218.936 727.342 214.698 727 211.5 725.36 199.3 727.856 195.181 727 181.5Z" fill="#FFA7C4" fill-rule="evenodd"/><path d="M727 181.5C727.608 178.108 730.769 173.62 734.454 174 752.136 170.889 771.333 175.012 782.5 174 793.667 172.988 813.583 175.742 830.546 174 834.56 173.789 838.088 176.156 838 181.5 839.925 196.379 837.096 198.825 838 211.5 837.74 215.653 834.868 218.627 830.546 219 819.151 221.258 792.609 218.096 781.539 219 770.469 219.904 746.611 216.54 734.454 219 730.325 218.658 727.627 215.773 727 211.5 723.509 199.024 727.013 189.197 727 181.5Z" stroke="#FFA7C4" stroke-width="4" stroke-miterlimit="8" fill="none" fill-rule="evenodd"/><text font-family="Calibri,Calibri_MSFontService,sans-serif" font-weight="400" font-size="24" transform="translate(737.09 204)">compiler</text><path d="M402 452.5C401.341 447.954 405.138 445.091 409.552 445 430.456 443.507 452.801 448.763 469.448 445 473.39 444.828 476.8 448.765 477 452.5 478.232 460.723 473.479 475.056 477 482.5 477.058 486.524 473.426 489.971 469.448 490 445.832 495.95 422.852 488.659 409.552 490 404.944 490.718 401.347 485.89 402 482.5 398.807 475.533 405.375 461.343 402 452.5Z" fill="#FFA7C4" fill-rule="evenodd"/><path d="M402 452.5C402.218 448.68 405.405 445.24 409.552 445 422.825 437.941 454.476 450.97 469.448 445 474.284 444.18 476.283 448.083 477 452.5 480.173 467.127 476.493 470.964 477 482.5 476.558 485.747 473.7 488.901 469.448 490 442.671 491.9 437.59 488.22 409.552 490 405.197 490.008 402.155 486.365 402 482.5 399.858 474.639 402.415 458.61 402 452.5Z" stroke="#FFA7C4" stroke-width="4" stroke-miterlimit="8" fill="none" fill-rule="evenodd"/><text font-family="Calibri,Calibri_MSFontService,sans-serif" font-weight="400" font-size="24" transform="translate(413.861 474)">pure</text><path d="M527 228.833C526.416 224.148 530.194 221.123 534.87 221 557.137 219.302 567.185 222.896 583.885 221 600.585 219.104 616.708 225.01 629.13 221 633.095 220.793 637.587 224.786 637 228.833 638.536 242.686 633.63 247.767 637 260.167 637.614 263.499 633.268 268.182 629.13 268 611.04 272.386 602.033 263.375 582 268 561.967 272.625 550.654 264.266 534.87 268 529.856 267.962 527.305 263.661 527 260.167 526.742 247.403 528.51 236.968 527 228.833Z" fill="#FFA7C4" fill-rule="evenodd"/><path d="M527 228.833C527.641 225.289 531.454 220.189 534.87 221 551.972 216.65 563.639 226.014 582 221 600.361 215.986 607.46 224.217 629.13 221 633.226 220.492 637.089 223.314 637 228.833 639.204 243.649 635.954 250.34 637 260.167 636.343 264.52 633.693 267.611 629.13 268 607.497 271.731 595.198 263.798 581.057 268 566.917 272.202 546.576 263.883 534.87 268 530.518 267.856 527.233 264.541 527 260.167 523.723 250.792 530.721 236.275 527 228.833Z" stroke="#FFA7C4" stroke-width="4" stroke-miterlimit="8" fill="none" fill-rule="evenodd"/><text font-family="Calibri,Calibri_MSFontService,sans-serif" font-weight="400" font-size="24" transform="translate(539.229 252)">protocol</text><path d="M544 618.167C543.457 613.319 547.222 610.155 552.11 610 565.526 607.445 577.633 610.432 585.796 610 593.958 609.568 608.743 612.067 616.89 610 621.009 609.802 625.841 614.061 625 618.167 628.373 625.936 623.689 644.09 625 650.833 625.44 654.622 620.567 659.71 616.89 659 602.753 659.06 597.409 655.663 584.5 659 571.591 662.337 560.08 655.483 552.11 659 546.494 658.935 544.342 654.399 544 650.833 541.123 639.226 545.342 627.923 544 618.167Z" fill="#FFA7C4" fill-rule="evenodd"/><path d="M544 618.167C544.517 614.294 547.986 609.687 552.11 610 564.479 606.094 572.236 611.091 584.5 610 596.764 608.909 608.084 610.922 616.89 610 620.94 609.12 625.087 612.47 625 618.167 627.496 625.473 622.109 638.95 625 650.833 624.115 655.38 621.712 658.379 616.89 659 603.393 660.84 595.299 656.236 583.852 659 572.406 661.764 561.737 655.564 552.11 659 547.62 658.702 544.1 655.365 544 650.833 541.706 641.144 545.968 629.718 544 618.167Z" stroke="#FFA7C4" stroke-width="4" stroke-miterlimit="8" fill="none" fill-rule="evenodd"/><text font-family="Calibri,Calibri_MSFontService,sans-serif" font-weight="400" font-size="24" transform="translate(554.63 642)">query</text><path d="M484 127.167C483.345 122.244 486.895 119.264 492.007 119 505.193 116.359 524.043 121.527 553.835 119 583.628 116.473 587.678 122.59 610.414 119 633.15 115.41 639.053 119.449 666.993 119 671.38 118.884 675.185 121.959 675 127.167 676.023 140.576 672.509 152.284 675 159.833 674.938 163.74 671.34 168.106 666.993 168 642.372 170.988 623.854 165.329 612.164 168 600.474 170.671 573.9 164.246 553.835 168 533.771 171.754 509.435 160.578 492.007 168 487.832 167.751 484.564 163.973 484 159.833 481.531 148.672 484.119 137.149 484 127.167Z" fill="#FFA7C4" fill-rule="evenodd"/><path d="M484 127.167C483.099 122.807 487.362 118.843 492.007 119 515.506 113.848 525.555 125.763 552.086 119 578.617 112.237 582.832 122.976 610.414 119 637.996 115.024 639.415 120.236 666.993 119 670.327 119.046 675.11 122.454 675 127.167 678.827 133.735 671.457 145.514 675 159.833 675.143 164.632 670.765 168.35 666.993 168 653.95 170.588 629.535 164.951 606.914 168 584.294 171.049 576.004 163.397 553.835 168 531.667 172.603 511.045 163.099 492.007 168 487.775 168.068 484.066 164.569 484 159.833 481.749 146.62 486.242 138.234 484 127.167Z" stroke="#FFA7C4" stroke-width="4" stroke-miterlimit="8" fill="none" fill-rule="evenodd"/><text font-family="Calibri,Calibri_MSFontService,sans-serif" font-weight="400" font-size="24" transform="translate(496.436 151)">pure metamodel</text><path d="M525 345.834C524.106 340.397 527.931 337.371 533.727 337 543.997 331.313 570.226 338.939 584.971 337 599.715 335.061 618.537 341.175 632.273 337 636.335 336.58 641.264 341.082 641 345.834 642.778 358.982 640.765 373.354 641 381.166 641.312 385.532 636.088 390.894 632.273 390 617.188 390.224 603.614 386.296 583 390 562.386 393.704 546.688 386.352 533.727 390 527.475 389.917 525.043 385.927 525 381.166 522.563 373.671 525.216 362.947 525 345.834Z" fill="#FFA7C4" fill-rule="evenodd"/><path d="M525 345.834C525.893 342.062 529.133 336.8 533.727 337 556.115 334.995 569.224 337.759 583 337 596.776 336.241 610.721 340.963 632.273 337 636.527 335.831 641.061 340.125 641 345.834 644.228 357.497 639.46 373.853 641 381.166 640.352 386.072 637.182 389.837 632.273 390 618.902 393.001 604.583 385.774 582.015 390 559.446 394.226 556.865 385.787 533.727 390 528.885 389.404 525.773 386.208 525 381.166 522.596 367.941 527.406 362.616 525 345.834Z" stroke="#FFA7C4" stroke-width="4" stroke-miterlimit="8" fill="none" fill-rule="evenodd"/><text font-family="Calibri,Calibri_MSFontService,sans-serif" font-weight="400" font-size="24" transform="translate(535.826 370)">grammar</text><path d="M620 455.5C619.139 450.828 623.102 448.098 627.511 448 640.558 445.12 659.008 449.094 686.635 448 714.263 446.906 715.255 449.281 739.19 448 763.124 446.719 768.237 453.495 789.555 448 810.872 442.505 823.423 452.496 846.489 448 850.892 447.477 853.908 451.344 854 455.5 857.003 465.564 851.109 471.466 854 485.5 853.923 489.77 849.887 492.131 846.489 493 825.16 495.203 812.485 490.255 796.124 493 779.764 495.745 763.571 489.397 741.38 493 719.188 496.603 702.189 492.973 688.825 493 675.461 493.027 651.299 491.539 627.511 493 623.77 492.495 619.322 489.38 620 485.5 618.145 470.763 622.589 461.853 620 455.5Z" fill="#FFA7C4" fill-rule="evenodd"/><path d="M620 455.5C619.561 450.464 623.431 447.086 627.511 448 647.133 446.09 663.904 453.195 684.445 448 704.987 442.805 713.805 448.649 734.81 448 755.816 447.351 773.17 452.426 793.934 448 814.699 443.574 824.018 451.988 846.489 448 850.682 448.088 853.729 451.5 854 455.5 857.522 465.954 852.32 477.448 854 485.5 854.365 488.522 851.017 493.41 846.489 493 830.461 499.667 815.094 487.71 787.365 493 759.636 498.29 742.181 488.05 730.431 493 718.68 497.95 698.19 492.206 680.066 493 661.942 493.794 644.817 490.233 627.511 493 623.015 493.352 619.723 490.233 620 485.5 618.787 475.95 621.911 465.704 620 455.5Z" stroke="#FFA7C4" stroke-width="4" stroke-miterlimit="8" fill="none" fill-rule="evenodd"/><text font-family="Calibri,Calibri_MSFontService,sans-serif" font-weight="400" font-size="24" transform="translate(632.972 478)">grammar integration</text><path d="M1.5-4.05938e-06 1.50003 12-1.49997 12-1.5 4.05938e-06ZM1.50006 21 1.50008 29.7942-1.49992 29.7942-1.49994 21ZM8.06306e-05 29.7942 7.50006 23.7942 0.000104987 38.7942-7.49994 23.7942Z" fill="#4472C4" transform="matrix(1 0 0 -1 583.5 213.294)"/><path d="M1.49991-0.0167553 1.63395 11.9825-1.36586 12.016-1.49991 0.0167553ZM1.73448 20.9819 1.86852 32.9812-1.13129 33.0147-1.26533 21.0154ZM1.96906 41.9806 2.02132 46.6589-0.978496 46.6924-1.03076 42.0141ZM0.52141 46.6756 7.95392 40.5922 0.621942 55.6751-7.04514 40.7598Z" fill="#F2F2F2" transform="matrix(1 0 0 -1 582.5 330.175)"/><path d="M0.762259-1.29188 11.0973 4.80619 9.5728 7.38995-0.762259 1.29188ZM18.8486 9.37974 29.1837 15.4778 27.6592 18.0616 17.3241 11.9635ZM36.935 20.0514 47.27 26.1494 45.7455 28.7332 35.4105 22.6351ZM55.0213 30.723 63.1106 35.4959 61.5861 38.0797 53.4968 33.3067ZM62.3483 36.7878 60.9921 27.2794 70.0996 41.3614 53.3695 40.1982Z" fill="#F2F2F2" transform="matrix(-1 0 0 1 713.6 203.5)"/><path d="M713.004 193.532 706.259 183.607 708.741 181.921 715.485 191.846ZM701.201 176.163 694.457 166.237 696.938 164.551 703.682 174.477ZM689.399 158.793 685.318 152.787 687.799 151.101 691.88 157.107ZM686.558 151.944 683.727 161.122 681.5 144.5 696.134 152.692Z" fill="#F2F2F2"/><path d="M1.32542-0.702323 6.94401 9.90105 4.29317 11.3057-1.32542 0.702323ZM11.158 17.8536 16.7765 28.4569 14.1257 29.8616 8.50711 19.2582ZM20.9905 36.4095 26.6091 47.0128 23.9582 48.4175 18.3396 37.8141ZM30.823 54.9654 35.6031 63.9863 32.9522 65.391 28.1722 56.37ZM34.2776 64.6885 38.0954 55.8752 38.4915 72.641 24.8412 62.8984Z" fill="#FFFFFF" transform="matrix(1 0 0 -1 442.5 214.141)"/><path d="M582.766 596.477 582.719 584.477 585.719 584.466 585.766 596.466ZM582.685 575.477 582.639 563.477 585.639 563.466 585.685 575.466ZM582.604 554.477 582.558 542.477 585.558 542.466 585.604 554.466ZM582.523 533.478 582.477 521.478 585.477 521.466 585.523 533.466ZM582.442 512.478 582.396 500.478 585.396 500.466 585.442 512.466ZM582.362 491.478 582.315 479.478 585.315 479.466 585.362 491.466ZM582.281 470.478 582.235 458.478 585.235 458.467 585.281 470.466ZM582.2 449.478 582.154 437.478 585.154 437.467 585.2 449.467ZM582.119 428.478 582.073 416.478 585.073 416.467 585.119 428.467ZM582.038 407.478 582.035 406.505 585.035 406.494 585.038 407.467ZM583.535 406.5 576.058 412.529 583.5 397.5 591.058 412.471Z" fill="#FFFFFF"/><path d="M573.681 597.169 563.956 590.139 565.713 587.708 575.439 594.738ZM556.662 584.867 546.936 577.838 548.694 575.406 558.419 582.436ZM539.642 572.565 529.917 565.536 531.674 563.104 541.4 570.134ZM522.623 560.264 512.897 553.234 514.655 550.803 524.38 557.832ZM505.603 547.962 495.878 540.932 497.635 538.501 507.361 545.531ZM488.584 535.66 478.858 528.63 480.615 526.199 490.341 533.229ZM471.564 523.358 461.839 516.329 463.596 513.897 473.321 520.927ZM454.544 511.057 448.916 506.988 450.673 504.557 456.302 508.625ZM449.794 505.772 450.263 515.365 442.5 500.5 459.05 503.209Z" fill="#FFFFFF"/><path d="M1.49999-0.00597083 1.54775 11.9939-1.45222 12.0059-1.49999 0.00597083ZM1.58358 20.9939 1.63135 32.9938-1.36863 33.0057-1.4164 21.0058ZM1.66717 41.9937 1.71494 53.9936-1.28504 54.0055-1.3328 42.0056ZM1.75076 62.9935 1.79853 74.9934-1.20145 75.0054-1.24921 63.0055ZM1.83435 83.9934 1.88212 95.9933-1.11785 96.0052-1.16562 84.0053ZM1.91795 104.993 1.96571 116.993-1.03426 117.005-1.08203 105.005ZM2.00154 125.993 2.0493 137.993-0.950671 138.005-0.998438 126.005ZM2.08513 146.993 2.1329 158.993-0.86708 159.005-0.914847 147.005ZM2.16872 167.993 2.21649 179.993-0.783488 180.005-0.831255 168.005ZM2.25231 188.993 2.30008 200.992-0.699897 201.004-0.747663 189.004ZM0.80785 202.947 8.28391 196.918 0.843675 211.947-6.71597 196.977Z" fill="#FFFFFF" transform="matrix(1 0 0 -1 782.5 437.447)"/><path d="M873.989 315.187 867.426 305.14 869.937 303.5 876.5 313.546ZM862.504 297.605 855.941 287.559 858.453 285.918 865.015 295.965ZM851.019 280.024 844.456 269.978 846.968 268.337 853.531 278.384ZM839.534 262.443 832.972 252.396 835.483 250.756 842.046 260.802ZM828.05 244.862 822.166 235.855 824.678 234.215 830.561 243.221ZM823.422 235.035 820.424 244.16 818.5 227.5 832.982 235.956Z" fill="#FFFFFF"/><path d="M0 0 280.439 73.3126" stroke="#FFFFFF" stroke-width="3" stroke-miterlimit="8" stroke-dasharray="12 9" fill="none" fill-rule="evenodd" transform="matrix(1 0 0 -1 594.5 595.813)"/><path d="M690.745 439.009 681.119 431.843 682.911 429.436 692.536 436.602ZM673.9 426.468 664.275 419.303 666.066 416.896 675.692 424.062ZM657.055 413.928 647.43 406.762 649.221 404.356 658.847 411.522ZM644.719 402.874 645.053 412.473 637.5 397.5 654.011 400.441Z" fill="#FFFFFF"/><path d="M0 0 0.000104987 207.577" stroke="#FFFFFF" stroke-width="3" stroke-miterlimit="8" stroke-dasharray="12 9" fill="none" fill-rule="evenodd" transform="matrix(1 0 0 -1 874.5 523.077)"/><path d="M487.5 467 499.5 467 499.5 470 487.5 470ZM508.5 467 520.5 467 520.5 470 508.5 470ZM529.5 467 541.5 467 541.5 470 529.5 470ZM550.5 467 562.5 467 562.5 470 550.5 470ZM571.5 467 583.5 467 583.5 470 571.5 470ZM592.5 467 604.185 467 604.185 470 592.5 470ZM604.185 468.5 598.185 461 613.185 468.5 598.185 476Z" fill="#00B050"/><path d="M0 0 0.000104987 217.82" stroke="#FFFFFF" stroke-width="3" stroke-miterlimit="8" stroke-dasharray="12 9" fill="none" fill-rule="evenodd" transform="matrix(1 0 0 -1 442.5 434.32)"/><path d="M740 29.1667 746.667 29.1667 746.667 30.8334 740 30.8333ZM749.213 30.0001 746.547 26 754.546 30.0001 746.546 34Z" fill="#4472C4"/><path d="M741.019 51.1669 747.684 51.3181 747.646 52.9843 740.981 52.8331ZM750.214 52.209 747.639 48.1496 755.546 52.33 747.458 56.1475Z" fill="#FFFFFF"/><text fill="#FFFFFF" font-family="Calibri,Calibri_MSFontService,sans-serif" font-weight="400" font-size="13" transform="translate(761.103 55)">Runtime Dependencies<tspan font-size="13" x="-0.606384" y="-22">Build Dependencies</tspan></text><path d="M740 73.1667 746.667 73.1667 746.667 74.8334 740 74.8333ZM749.001 74.0001 746.334 70 754.334 74.0001 746.334 78Z" fill="#00B050"/><text fill="#FFFFFF" font-family="Calibri,Calibri_MSFontService,sans-serif" font-weight="400" font-size="13" transform="translate(761.103 78)">Test Dependencies</text></g></svg>